<svg width="16" height="18" viewBox="0 0 16 18" fill="none" xmlns="http://www.w3.org/2000/svg">
<path d="M15.2622 16.3749H14.5768V6.42295C14.5768 5.95973 14.2 5.58289 13.7368 5.58289H12.2048C11.7416 5.58289 11.3647 5.95976 11.3647 6.42295V16.3749H9.62434V10.932C9.62434 10.4688 9.24749 10.0919 8.78427 10.0919H7.25227C6.78905 10.0919 6.41221 10.4688 6.41221 10.932V16.3749H4.67184V13.5561C4.67184 13.0929 4.29496 12.716 3.83177 12.716H2.29974C1.83652 12.716 1.45968 13.0929 1.45968 13.5561V16.3749H0.737305C0.564711 16.3749 0.424805 16.5149 0.424805 16.6874C0.424805 16.86 0.564711 16.9999 0.737305 16.9999H15.2622C15.4348 16.9999 15.5747 16.86 15.5747 16.6874C15.5747 16.5149 15.4348 16.3749 15.2622 16.3749ZM4.04677 16.3749H2.08465V13.5561C2.08465 13.4375 2.18112 13.341 2.29971 13.341H3.83171C3.9503 13.341 4.04677 13.4375 4.04677 13.5561V16.3749ZM8.9993 16.3749H7.03718V10.932C7.03718 10.8134 7.13365 10.7169 7.25224 10.7169H8.78424C8.9028 10.7169 8.9993 10.8134 8.9993 10.932V16.3749ZM13.9518 16.3749H11.9897V6.42295C11.9897 6.30435 12.0862 6.20789 12.2048 6.20789H13.7368C13.8554 6.20789 13.9518 6.30435 13.9518 6.42295V16.3749Z" fill="black" stroke="black" stroke-width="0.5"/>
<path d="M14.5762 1.32862C14.5806 1.24334 14.5506 1.15663 14.4855 1.0915C14.4204 1.02637 14.3336 0.996344 14.2484 1.00075C14.2433 1.00053 14.2384 1 14.2332 1H12.3426C12.17 1 12.0301 1.13991 12.0301 1.3125C12.0301 1.48509 12.17 1.625 12.3426 1.625H13.51L10.4207 4.71431L9.25573 3.54931C9.19714 3.49072 9.11764 3.45778 9.03477 3.45778C8.95189 3.45778 8.87239 3.49072 8.8138 3.54931L3.19602 9.16712C3.07398 9.28916 3.07398 9.48703 3.19602 9.60909C3.25705 9.67006 3.33702 9.70056 3.41698 9.70056C3.49695 9.70056 3.57695 9.67006 3.63795 9.60903L9.03477 4.21219L10.1998 5.37719C10.3218 5.49922 10.5197 5.49922 10.6417 5.37719L13.952 2.06697V3.12353C13.952 3.29613 14.0919 3.43603 14.2645 3.43603C14.4371 3.43603 14.577 3.29613 14.577 3.12353V1.34375C14.577 1.33866 14.5765 1.33369 14.5762 1.32862Z" fill="black" stroke="black" stroke-width="0.5"/>
</svg>
