<svg width="14" height="16" viewBox="0 0 14 16" fill="none" xmlns="http://www.w3.org/2000/svg">
<path d="M8.75912 0.622925H6.8905V1.7908H8.17516V3.9903C8.17516 5.92217 6.60338 7.49396 4.6715 7.49396C2.73963 7.49396 1.16788 5.92221 1.16788 3.99033V1.7908H2.41363V0.622925H0.583938C0.261406 0.622925 0 0.884331 0 1.20686V3.99033C0 6.5663 2.09556 8.66186 4.67153 8.66186C7.2475 8.66186 9.34306 6.5663 9.34306 3.99033V1.20686C9.34306 0.884331 9.08166 0.622925 8.75912 0.622925Z" fill="#3FA9F5"/>
<path d="M11.0365 9.14838V11.9124C11.0365 13.5223 9.72671 14.8321 8.11677 14.8321C6.50683 14.8321 5.19705 13.5223 5.19705 11.9124V8.09729H4.02917V11.9124C4.02917 14.1662 5.86274 16 8.11677 16C10.3706 16 12.2044 14.1662 12.2044 11.9124V9.14838H11.0365Z" fill="#3FA9F5"/>
<path d="M11.6206 5.37219C10.429 5.37219 9.45984 6.34135 9.45984 7.53279C9.45984 8.72404 10.429 9.69338 11.6204 9.69338C12.8119 9.69338 13.781 8.72404 13.7812 7.53279C13.7812 6.34135 12.8119 5.37219 11.6206 5.37219ZM11.6204 8.5255C11.0729 8.5255 10.6275 8.08016 10.6275 7.53282C10.6275 6.98547 11.0729 6.54013 11.6204 6.54013C12.1678 6.54013 12.6131 6.98547 12.6131 7.53282C12.6131 8.08016 12.1678 8.5255 11.6204 8.5255Z" fill="#3FA9F5"/>
<path d="M2.39418 0C2.07165 0 1.81024 0.261406 1.81024 0.583938V1.82969C1.81024 2.15222 2.07165 2.41363 2.39418 2.41363C2.71671 2.41363 2.97812 2.15222 2.97812 1.82969V0.583938C2.97812 0.261406 2.71671 0 2.39418 0Z" fill="#3FA9F5"/>
<path d="M6.90999 0C6.58746 0 6.32605 0.261406 6.32605 0.583938V1.82969C6.32605 2.15222 6.58746 2.41363 6.90999 2.41363C7.23252 2.41363 7.49392 2.15222 7.49392 1.82969V0.583938C7.49392 0.261406 7.23252 0 6.90999 0Z" fill="#3FA9F5"/>
</svg>
