<svg id="Layer_1" data-name="Layer 1" xmlns="http://www.w3.org/2000/svg" xmlns:xlink="http://www.w3.org/1999/xlink" viewBox="0 0 37 27"><defs><style>.cls-1,.cls-4{fill:none;}.cls-2{clip-path:url(#clip-path);}.cls-3{fill:#9cd5ff;}.cls-4{stroke:#0a3977;stroke-linecap:round;stroke-linejoin:round;stroke-width:1.5px;}</style><clipPath id="clip-path"><rect class="cls-1" width="37" height="27"/></clipPath></defs><g class="cls-2"><path class="cls-3" d="M.71,10.38C.71,5.2,4.62,1,9.43,1H26.87c4.82,0,8.72,4.2,8.72,9.38v6.25c0,5.18-3.9,9.37-8.72,9.37H9.43C4.62,26,.71,21.81.71,16.63Z"/><path class="cls-4" d="M26,15.62v2.92a1.37,1.37,0,0,1-.46,1,1.57,1.57,0,0,1-1.1.43H13.56a1.57,1.57,0,0,1-1.1-.43,1.37,1.37,0,0,1-.46-1V15.62"/><path class="cls-4" d="M15.5,11.25,19,15.62l3.5-4.37"/><path class="cls-4" d="M19,15.62V6"/></g></svg>