<svg id="Layer_1" data-name="Layer 1" xmlns="http://www.w3.org/2000/svg" xmlns:xlink="http://www.w3.org/1999/xlink" viewBox="0 0 22.05 21.74"><defs><style>.cls-1,.cls-4,.cls-5{fill:none;}.cls-2{clip-path:url(#clip-path);}.cls-3{fill:#fff;}.cls-4,.cls-5{stroke:#3fa9f5;stroke-linecap:round;stroke-linejoin:round;}.cls-4{stroke-width:1.5px;}.cls-5{stroke-width:2px;}</style><clipPath id="clip-path"><rect class="cls-1" x="0.53" y="0.37" width="21" height="21"/></clipPath></defs><g class="cls-2"><rect class="cls-3" x="0.53" y="0.37" width="21" height="21"/><path class="cls-4" d="M3.35,13.42,1.89,12a1.55,1.55,0,0,1,0-2.17L3.35,8.34A1.77,1.77,0,0,0,3.8,7.26V5.19A1.54,1.54,0,0,1,5.33,3.66H7.39a1.77,1.77,0,0,0,1.09-.45L9.93,1.75a1.55,1.55,0,0,1,2.17,0l1.46,1.46a1.75,1.75,0,0,0,1.08.45H16.7a1.54,1.54,0,0,1,1.53,1.53V7.26a1.77,1.77,0,0,0,.45,1.08l1.46,1.45a1.55,1.55,0,0,1,0,2.17l-1.46,1.46a1.77,1.77,0,0,0-.45,1.08v2.06a1.54,1.54,0,0,1-1.53,1.53H14.64a1.8,1.8,0,0,0-1.08.45L12.1,20a1.53,1.53,0,0,1-2.17,0L8.48,18.54a1.83,1.83,0,0,0-1.09-.45H5.33A1.54,1.54,0,0,1,3.8,16.56V14.5A1.72,1.72,0,0,0,3.35,13.42Z"/><path class="cls-4" d="M8.15,13.74,13.9,8"/><path class="cls-5" d="M13.42,13.26h0"/><path class="cls-5" d="M8.63,8.47h0"/></g></svg>