<svg width="351" height="518" viewBox="0 0 351 518" fill="none" xmlns="http://www.w3.org/2000/svg">
<path d="M166.61 434.149H166.609V435.649C166.609 467.527 140.299 493.5 107.92 493.5C75.5405 493.5 49.231 467.528 49.231 435.649V406.727H102.077C108.428 406.727 113.577 401.578 113.577 395.227V369.308C113.577 362.957 108.428 357.808 102.077 357.808C95.7256 357.808 90.577 362.957 90.577 369.308V383.727H49.231V247.464H90.577V278.896C90.577 285.247 95.7256 290.396 102.077 290.396C108.428 290.396 113.577 285.247 113.577 278.896V235.964C113.577 229.613 108.428 224.464 102.077 224.464H49.231V197.78H154.584C144.605 213.864 138.839 232.824 138.839 253.103C138.839 280.517 149.376 305.517 166.61 324.262V434.149ZM244.073 147.867C224.155 147.867 205.507 153.431 189.609 163.086V77.991H202.839C209.19 77.991 214.339 72.8424 214.339 66.491V13C214.339 6.64857 209.19 1.5 202.839 1.5H13C6.64857 1.5 1.5 6.64857 1.5 13V66.491C1.5 72.8424 6.64857 77.991 13 77.991H26.23V435.649C26.23 480.246 62.8895 516.5 107.919 516.5C152.949 516.5 189.608 480.246 189.608 435.649V343.118C205.507 352.773 224.154 358.337 244.072 358.337C302.1 358.337 349.307 311.13 349.307 253.102C349.307 195.074 302.101 147.867 244.073 147.867ZM49.23 154.914H166.609V174.78H49.23V154.914ZM24.5 24.5H191.339V54.991H24.5V24.5ZM166.609 77.991V131.914H49.23V77.991H166.609ZM244.073 335.337C198.729 335.337 161.838 298.445 161.838 253.102C161.838 207.758 198.73 170.867 244.073 170.867C289.417 170.867 326.308 207.759 326.308 253.102C326.308 298.446 289.417 335.337 244.073 335.337Z" fill="#3FA9F5" stroke="#3FA9F5" stroke-width="3"/>
<path d="M236.328 190.577L236.328 190.577C234.157 192.631 223.638 202.826 213.65 216.683C203.702 230.484 194.081 248.188 194.081 265.216C194.081 292.871 216.578 315.368 244.232 315.368C271.887 315.368 294.384 292.871 294.384 265.216C294.384 248.237 284.765 230.537 274.82 216.729C264.834 202.863 254.317 192.647 252.146 190.588C247.714 186.383 240.767 186.378 236.328 190.577ZM244.232 292.368C229.263 292.368 217.081 280.187 217.081 265.216C217.081 257.194 221.142 247.694 226.812 238.472C232.097 229.877 238.659 221.712 244.224 215.506C249.792 221.725 256.36 229.903 261.647 238.502C267.321 247.729 271.384 257.222 271.384 265.216C271.384 280.187 259.203 292.368 244.232 292.368Z" fill="#3FA9F5" stroke="#3FA9F5" stroke-width="3"/>
<path d="M112.702 319.521L112.702 319.521L112.699 319.513C110.819 315 106.152 312.092 101.257 312.446L101.257 312.446C96.4694 312.793 92.3502 316.16 91.0275 320.759C89.7032 325.364 91.4601 330.479 95.3831 333.268L95.3832 333.268C99.2603 336.023 104.49 336.1 108.451 333.481L108.451 333.481C113.005 330.471 114.753 324.524 112.702 319.521Z" fill="#3FA9F5" stroke="#3FA9F5" stroke-width="3"/>
</svg>
