<?xml version="1.0" encoding="utf-8"?>
<!-- Generator: Adobe Illustrator 25.2.3, SVG Export Plug-In . SVG Version: 6.00 Build 0)  -->
<svg version="1.1" id="Layer_1" xmlns="http://www.w3.org/2000/svg" xmlns:xlink="http://www.w3.org/1999/xlink" x="0px" y="0px"
	 viewBox="0 0 1076.9 424.1" style="enable-background:new 0 0 1076.9 424.1;" xml:space="preserve">
<style type="text/css">
	.st0{fill:#3FA9F5;}
	.st1{fill:#FFFFFF;}
	.st2{fill:#7AC943;}
</style>
<circle class="st0" cx="852.5" cy="211.4" r="202.3"/>
<g>
	<g>
		<g>
			<path class="st1" d="M839.8,119.5C825.4,93,797.5,68,765.6,80.9c-27,11-42.2,40.8-50.3,67.1c-11,35.7-11.8,75.2-3.5,111.6
				c6.4,28.1,19.7,59.6,45.1,75.6c12.2,7.6,27.4,10.1,41.1,5.3c18.8-6.5,32.2-22.5,41.4-39.5c4.3-7.9-7.8-15-12.1-7.1
				c-11.3,20.8-33.9,44.3-59.5,31.4c-22.2-11.3-34-37.8-40.4-60.5c-8.9-31.6-9.7-66.1-2.7-98.2c5.3-24.3,15.6-52.7,36.8-67.7
				c9.2-6.5,20.1-9.4,31.2-6.1c16.1,4.8,27.1,19.7,34.8,33.7C832,134.4,844.1,127.4,839.8,119.5L839.8,119.5z"/>
		</g>
	</g>
	<g>
		<g>
			<path class="st1" d="M877.5,126.6c11.3-20.8,33.9-44.3,59.5-31.4c22.2,11.3,34,37.8,40.4,60.5c8.9,31.6,9.7,66.1,2.7,98.2
				c-5.3,24.3-15.6,52.7-36.8,67.7c-9.2,6.6-20.1,9.4-31.2,6.1c-16.1-4.8-27.1-19.7-34.8-33.7c-2.1-3.9-7.9-4.6-11-1.4
				c-13.2,13.5-19.4,32.8-23.7,50.8c-5.4,22.9-7.7,46.5-9,69.9c-0.5,9,13.5,9,14,0c1.2-21.7,3.3-43.4,8.2-64.6
				c3.7-16,8.6-34.1,20.4-46.2c-3.7-0.5-7.3-0.9-11-1.4c14.3,26.5,42.3,51.5,74.2,38.5c27-11,42.2-40.8,50.3-67.1
				c11-35.7,11.8-75.2,3.5-111.6c-6.4-28.1-19.7-59.6-45.1-75.6c-12.2-7.6-27.4-10.1-41.1-5.3c-18.8,6.5-32.2,22.5-41.4,39.5
				C861.1,127.4,873.2,134.5,877.5,126.6L877.5,126.6z"/>
		</g>
	</g>
	<g>
		<g>
			<path class="st1" d="M771.7,176.6c9.2,3.6,21.1,2.1,30-1.5c27.5-10.9,41.8-40.9,50.3-67.3c10.3-31.7,14.4-65.4,16.8-98.5
				c0.7-9-13.3-8.9-14,0c-2.1,28.8-5.7,57.8-13.6,85.7c-4.7,16.6-10.9,33.1-21,47.3c-5.7,8-12.4,14.4-21.4,18.9
				c-0.4,0.2-0.9,0.4-1.3,0.6c-1.1,0.5,1.4-0.5,0,0c-0.9,0.3-1.8,0.7-2.7,1c-1.7,0.5-3.4,0.9-5.1,1.3c-0.3,0.1-0.7,0.1-1,0.2
				c-1.7,0.3,1.2-0.1,0.3,0c-0.8,0.1-1.5,0.2-2.3,0.2c-1.3,0.1-2.7,0.1-4,0.1c-0.7,0-1.3-0.1-1.9-0.1c-0.3,0-0.6-0.1-0.9-0.1
				c-1.4-0.1,1.8,0.3,0.7,0.1c-0.9-0.2-1.9-0.3-2.8-0.5c-0.8-0.2-1.6-0.4-2.4-0.7C767,159.8,763.4,173.4,771.7,176.6L771.7,176.6z"
				/>
		</g>
	</g>
</g>
<g>
	<g>
		<path class="st2" d="M597.4,65.8c0,32.9,0,65.9,0,98.8c0,52.1,0,104.2,0,156.3c0,12,0,24,0,36c0,5.4,8.4,5.4,8.4,0
			c0-32.9,0-65.9,0-98.8c0-52.1,0-104.2,0-156.3c0-12,0-24,0-36C605.8,60.4,597.4,60.4,597.4,65.8L597.4,65.8z"/>
	</g>
</g>
<g>
	<path class="st0" d="M125.1,158.7h1.5v12.8h-1.5c-5.8,0-11.1-2.4-15.9-7.3c-0.3,0.6-0.7,1.1-1.3,1.7c-3.1,3.8-7.5,5.6-13.4,5.6
		H72.2c-11.3,0-18.9-0.2-22.9-0.5c-4-0.3-7.4-1.1-10.3-2.4c-4.5-2-7.6-5.2-9.3-9.5c-1.7-4.3-1.8-9.2-0.4-14.7l3.9-15l11.1,3.2
		l-4.1,15.6c-0.6,2.4-0.6,4.2-0.1,5.5c0.5,1.3,1.7,2.4,3.5,3.3c1.6,0.6,4.2,1.1,7.7,1.4c3.5,0.3,10.7,0.4,21.4,0.4h21.9
		c1.5,0,2.6-0.3,3.3-0.8c1-0.8,1.7-1.8,1.8-3c0.2-1.3-0.1-2.5-0.9-3.7l-23.2-32.7l2.6-9.7l37.8-13.9l4,12l-30.1,11l17.4,25.6
		c0.1,0.1,0.3,0.4,0.5,0.7c0.2,0.3,0.3,0.5,0.4,0.7c3.3,5.4,6.2,9.1,8.6,11C119.3,157.7,122,158.7,125.1,158.7z"/>
	<path class="st0" d="M125.5,171.5v-12.8h32.4v12.8H125.5z"/>
	<path class="st0" d="M193.4,152.4c0.3,2.4,0.9,4.1,2,5c1,0.9,2.9,1.3,5.6,1.3v12.8c-5.6,0-10-1.5-13.2-4.5c-3.5,3-8.1,4.5-13.6,4.5
		h-17.5v-12.8h17.5c3,0,5.1-0.5,6.2-1.4s1.7-2.4,1.5-4.4l-1.1-12.8l11.4-1.1l1.1,12.8V152.4z M158.2,187l7.8-7.9l7.9,7.9l-7.9,7.8
		L158.2,187z M178.2,187l7.8-7.9l7.9,7.9l-7.9,7.8L178.2,187z"/>
	<path class="st0" d="M200,171.5v-12.8h32.4v12.8H200z"/>
	<path class="st0" d="M231.3,171.5v-12.8h32.4v12.8H231.3z"/>
	<path class="st0" d="M295.9,158.7v12.8c-5.7,0-10.1-1.5-13.2-4.5c-3.4,3-7.9,4.5-13.6,4.5h-6.6v-12.8h6.6c2.9,0,4.9-0.5,6.1-1.4
		c1.2-0.9,1.7-2.3,1.6-4.2v-0.3l-1.1-12.8l11.5-1.1l1.1,12.8v0.3c0.3,2.6,0.9,4.4,1.9,5.3C291.3,158.2,293.2,158.7,295.9,158.7z
		 M285.8,122.1l-8.9,9l-8.9-9l8.9-8.9L285.8,122.1z"/>
	<path class="st0" d="M294.9,171.5v-12.8h32.4v12.8H294.9z"/>
	<path class="st0" d="M362.9,152.4c0.3,2.4,0.9,4.1,2,5c1,0.9,2.9,1.3,5.6,1.3v12.8c-5.6,0-10-1.5-13.2-4.5c-3.5,3-8.1,4.5-13.6,4.5
		h-17.5v-12.8h17.5c3,0,5.1-0.5,6.2-1.4s1.7-2.4,1.5-4.4l-1.1-12.8l11.4-1.1l1.1,12.8V152.4z M327.7,187l7.8-7.9l7.9,7.9l-7.9,7.8
		L327.7,187z M347.6,187l7.8-7.9l7.9,7.9l-7.9,7.8L347.6,187z"/>
	<path class="st0" d="M369.4,171.5v-12.8h32.4v12.8H369.4z"/>
	<path class="st0" d="M429.9,158.7h2.1v12.8h-2.1c-5.2,0-9.5-1.7-12.9-5c-3.5,3.3-8.1,5-13.8,5h-2.6v-12.8h2.6
		c3.1,0,5.1-0.6,6.2-1.8c1.1-1.2,1.5-2.7,1.4-4.5l-2-51.6l11.5-0.6l2,51.7v0.6C422.9,156.6,425.4,158.7,429.9,158.7z"/>
	<path class="st0" d="M430.9,171.5v-12.8h32.4v12.8H430.9z"/>
	<path class="st0" d="M462.2,171.5v-12.8h32.4v12.8H462.2z"/>
	<path class="st0" d="M511.3,117.8l17.5,25.6c2.6,4.1,4,8.2,4,12.3s-1.2,7.5-3.7,10.2c-3,3.8-7.4,5.6-13.3,5.6h-22.3v-12.8H516
		c1.3,0,2.4-0.3,3.3-0.8c1-0.8,1.5-1.8,1.7-3c0.2-1.3-0.1-2.5-0.9-3.7l-23.1-32.7l2.6-9.7l37.7-13.9l4.1,12L511.3,117.8z"/>
	<path class="st0" d="M43.1,296.8c-5.4,0-9.7-1.3-13-3.8c-3.3-2.5-5.1-5.8-5.3-9.7l-0.3-6.7h10.6c0,1.9,0.1,3.4,0.2,4.5
		c0.3,1.9,2.3,2.8,5.7,2.8h10.3c3.3,0,5.5-0.6,6.6-1.8c1-1.2,1.2-2.9,0.5-5.1c-1.1-3.2-3-7.2-5.7-11.9c-2.7-4.7-5.1-8.7-7.3-11.8
		l-3.2-4.7l9.3-7.5c1.1,1.5,2.5,3.4,4.2,5.8c1.7,2.4,4.2,6.6,7.5,12.5c3.3,5.9,5.4,10.8,6.4,14.7c1.6,6.3,0.6,11.7-2.9,16.1
		c-3.5,4.4-9.2,6.6-17,6.6H43.1z"/>
	<path class="st0" d="M131.8,283.9h5.1v12.8h-5.1c-4.6,0-8.4-1.7-11.4-5c-3.7,3.3-8.8,5-15.5,5h-5.7c-5.4,0-9.7-1.3-13-3.8
		c-3.3-2.5-5.1-5.8-5.3-9.7l-0.3-6.7h10.6c0,1.9,0.1,3.4,0.2,4.5c0.3,1.9,2.3,2.8,5.7,2.8h9.3c3.2,0,5.3-0.5,6.4-1.6
		c1.1-1.1,1.4-2.6,1-4.5c-0.1-0.1-0.1-0.2-0.1-0.4c0-0.2,0-0.3-0.1-0.4l-7.8-30.6l11.2-3.1l7.7,30.8c0.7,2.6,1.3,4.5,1.7,5.7
		c0.4,1.1,1.1,2.1,1.9,2.9C129.3,283.5,130.4,283.9,131.8,283.9z"/>
	<path class="st0" d="M169,295.4c-0.1,0.1-0.3,0.1-0.5,0.1s-0.3,0-0.4,0.1h-0.6c-2.3,0.3-6,0.5-11,0.7c-5,0.2-9.5,0.3-13.4,0.4
		l-5.8,0.1h-1.3v-12.8h1l9.9-0.2c-0.7-1.5-1.2-3.2-1.6-5.1c-1.1-5.8-0.1-11.2,3.1-16.1c3.2-4.9,7.6-7.8,13.3-8.8
		c1.8-0.3,4.2-0.2,7.2,0.1c3,0.3,5.5,0.8,7.6,1.4l3.1,0.7l-2.9,12.4c-0.6-0.2-1.5-0.4-2.5-0.7c-1-0.2-2.7-0.6-4.9-0.9
		c-2.2-0.4-3.8-0.5-5-0.5c-2.6,0.3-4.8,1.3-6.3,3.2c-1.6,1.8-2.1,4-1.7,6.4c0.3,2,1.3,3.7,3,5c1.6,1.3,3.5,2,5.6,2.1
		c0.6,0,1.3-0.1,2-0.2v0.1l17.9-3.3l2.1,12.5L169,295.4z M171.5,239.4l-8.9,8.9l-8.9-8.9l8.9-9L171.5,239.4z"/>
	<path class="st0" d="M257,294.1c0.4,3.9,0.3,7.2-0.4,10c-0.7,2.8-1.8,5.1-3.3,7.1c-1.5,1.9-3.9,3.7-7.1,5.2
		c-3.2,1.5-6.6,2.8-10.3,3.8c-3.7,1-8.5,2.1-14.5,3.4l-2.3-12.5c12-2.4,19.6-4.5,22.6-6.1c3-1.6,4.3-4.7,3.9-9.1
		c-3.8,0.6-7.7,0.9-11.9,0.9c-5.3,0-9.7-1.7-13.2-5.1c-3.5-3.4-5.5-7.8-6-13.3c-0.5-6.2,1.1-11.7,4.7-16.7c3.6-4.9,8.4-7.5,14.2-7.8
		c5.9-0.3,10.9,1.7,14.8,6.1c4,4.3,6.3,10,7.1,17.1L257,294.1z M225.9,277.5c0.3,4.3,2.9,6.5,7.7,6.5c3.5,0,7.1-0.3,10.8-0.8
		l-0.4-4.4c-0.4-3.9-1.5-6.9-3.3-9c-1.8-2.1-4.1-3.1-6.8-2.9c-2.6,0.1-4.7,1.2-6.1,3.3C226.3,272.2,225.7,274.7,225.9,277.5z"/>
	<path class="st0" d="M384.8,283.9v12.8c-5.6,0-10-1.5-13.2-4.5c-3.4,3-7.9,4.5-13.6,4.5h-25.2c-11.5,0-19.3-0.2-23.3-0.5
		c-4.1-0.3-7.5-1.1-10.4-2.4c-4.5-2-7.6-5.2-9.3-9.5c-1.7-4.3-1.8-9.2-0.4-14.7l3.9-15l11.1,3.2l-4.1,15.6c-0.6,2.4-0.6,4.2-0.1,5.5
		c0.5,1.3,1.7,2.4,3.5,3.3c1.6,0.6,4.2,1.1,7.7,1.4c3.5,0.3,10.7,0.4,21.4,0.4H358c3,0,5.1-0.5,6.2-1.4s1.7-2.4,1.5-4.4l-1.1-12.8
		l11.4-1.1l1.1,12.8v0.3c0.3,2.6,0.9,4.4,1.9,5.3C380.1,283.5,382,283.9,384.8,283.9z M331.3,253.3l-7.9,7.8l-7.8-7.8l7.8-7.9
		L331.3,253.3z M351.3,253.3l-7.9,7.8l-7.8-7.8l7.8-7.9L351.3,253.3z"/>
	<path class="st0" d="M391.2,320.8l-8.9-8.9l8.9-8.9l8.9,8.9L391.2,320.8z M383.7,296.8v-12.8h8.2c3.9,0,6.6-0.8,8.2-2.3
		c1.6-1.6,1.8-4.4,0.7-8.4l-4.2-15.6l11.1-3.2l4.2,15.6c2.2,8,1.2,14.5-2.8,19.4c-4,4.9-9.8,7.4-17.3,7.4H383.7z"/>
	<path class="st0" d="M445.8,296.8c-7.2,0-12.2-1.7-15.2-5.1c-3-3.4-4.6-9.2-5-17.6l-1.9-48l11.5-0.6l1.9,48.6
		c0.1,4.4,0.7,7.1,1.6,8.2c0.9,1.1,3.3,1.6,7.1,1.6h1v12.8H445.8z"/>
	<path class="st0" d="M447.1,319.9l-7.8-7.8l7.8-7.9l7.9,7.9L447.1,319.9z M445.8,296.8v-12.8h15.7c3.9,0,6.6-0.8,8.2-2.4
		c1.6-1.6,1.8-4.4,0.7-8.4l-4.1-15.6l11-3.2l4.3,16.2c2.1,7.8,1.1,14.1-2.9,18.9c-4,4.8-9.8,7.3-17.2,7.3H445.8z M467,319.9
		l-7.8-7.8l7.8-7.9l7.9,7.9L467,319.9z"/>
	<path class="st0" d="M511.5,296.8c-5.4,0-9.7-1.3-13-3.8c-3.3-2.5-5.1-5.8-5.3-9.7l-0.3-6.7h10.6c0,1.9,0.1,3.4,0.2,4.5
		c0.3,1.9,2.3,2.8,5.7,2.8h10.3c3.3,0,5.5-0.6,6.6-1.8c1-1.2,1.2-2.9,0.5-5.1c-1.1-3.2-3-7.2-5.7-11.9c-2.7-4.7-5.1-8.7-7.3-11.8
		l-3.2-4.7l9.3-7.5c1.1,1.5,2.5,3.4,4.2,5.8c1.7,2.4,4.2,6.6,7.5,12.5c3.3,5.9,5.4,10.8,6.4,14.7c1.6,6.3,0.6,11.7-2.9,16.1
		c-3.5,4.4-9.2,6.6-17,6.6H511.5z"/>
</g>
</svg>
