<svg width="512" height="512" viewBox="0 0 512 512" fill="none" xmlns="http://www.w3.org/2000/svg">
<g clip-path="url(#clip0_623_2852)">
<path d="M443.393 259.503L472.434 230.462C525.187 177.709 525.193 92.324 472.434 39.566C419.683 -13.186 334.297 -13.193 281.539 39.566C270.279 50.824 49.78 271.325 39.567 281.538C-13.186 334.291 -13.192 419.676 39.567 472.434C92.318 525.186 177.704 525.193 230.462 472.434L259.504 443.393C282.72 484.304 326.681 511.97 376.986 511.97C451.416 511.97 511.97 451.416 511.97 376.986C511.97 326.68 484.305 282.719 443.393 259.503ZM242.002 376.985C242.002 389.62 243.752 401.854 247.013 413.462L209.252 451.223C168.223 492.251 101.812 492.257 60.778 451.223C19.749 410.195 19.743 343.783 60.778 302.749L170.243 193.284L270.755 293.795C252.75 316.736 242.002 345.629 242.002 376.985ZM361.987 480.897C311.176 473.597 271.998 429.784 271.998 376.985C271.998 324.186 311.176 280.373 361.987 273.073V480.897ZM291.766 272.386L191.453 172.073L302.749 60.777C343.778 19.749 410.189 19.743 451.223 60.777C492.252 101.805 492.258 168.217 451.223 209.251L413.462 247.012C401.854 243.75 389.621 242.001 376.986 242.001C344.696 242.001 315.022 253.404 291.766 272.386ZM391.984 480.897V273.074C442.795 280.374 481.973 324.187 481.973 376.986C481.973 429.784 442.795 473.597 391.984 480.897Z" fill="#3FA9F5"/>
</g>
<defs>
<clipPath id="clip0_623_2852">
<rect width="512" height="512" fill="white"/>
</clipPath>
</defs>
</svg>
