<svg id="Layer_1" data-name="Layer 1" xmlns="http://www.w3.org/2000/svg" viewBox="0 0 37 27"><defs><style>.cls-1{fill:#9cd5ff;}.cls-2{fill:none;stroke:#0a3977;stroke-linecap:round;stroke-linejoin:round;stroke-width:1.5px;}</style></defs><path class="cls-1" d="M1,10.38C1,5.2,4.9,1,9.72,1H27.16c4.81,0,8.72,4.2,8.72,9.38v6.25C35.88,21.81,32,26,27.16,26H9.72C4.9,26,1,21.81,1,16.63Z"/><path class="cls-2" d="M22.66,21.75H13.51V15.34h9.15Z"/><path class="cls-2" d="M13.51,19h-.66a3,3,0,0,1-3-3V13.59a1,1,0,0,1,1-1H25.32a1,1,0,0,1,1,1V16a3,3,0,0,1-3,3h-.66"/><path class="cls-2" d="M13.51,9.85V7.1h9.15V9.85"/></svg>