<svg width="16" height="17" viewBox="0 0 16 17" fill="none" xmlns="http://www.w3.org/2000/svg">
<path fill-rule="evenodd" clip-rule="evenodd" d="M13.0533 11.6399L13.2133 12.3999C13.3649 13.057 13.2152 13.7474 12.8051 14.2827C12.3949 14.8179 11.7672 15.1421 11.0933 15.1666H4.90665C4.23276 15.1421 3.60503 14.8179 3.19488 14.2827C2.78473 13.7474 2.63503 13.057 2.78665 12.3999L2.94665 11.6399C3.13067 10.6111 4.01506 9.85504 5.05998 9.83325H10.94C11.9849 9.85504 12.8693 10.6111 13.0533 11.6399ZM11.0933 14.1599C11.4318 14.156 11.7504 13.9992 11.96 13.7333V13.7399C12.2171 13.4174 12.3173 12.9971 12.2333 12.5933L12.0733 11.8333C11.9845 11.27 11.5097 10.8483 10.94 10.8266H5.05998C4.49023 10.8483 4.01542 11.27 3.92665 11.8333L3.76665 12.5933C3.68475 12.995 3.78482 13.4123 4.03998 13.7333C4.24954 13.9992 4.56812 14.156 4.90665 14.1599H11.0933Z" fill="#0B1C3F"/>
<path fill-rule="evenodd" clip-rule="evenodd" d="M8.33328 8.49993H7.66662C6.19386 8.49993 4.99995 7.30602 4.99995 5.83326V4.07326C4.99817 3.47863 5.2336 2.90785 5.65407 2.48738C6.07453 2.06691 6.64532 1.83148 7.23995 1.83326H8.75995C9.35458 1.83148 9.92536 2.06691 10.3458 2.48738C10.7663 2.90785 11.0017 3.47863 10.9999 4.07326V5.83326C10.9999 7.30602 9.80604 8.49993 8.33328 8.49993ZM7.23994 2.83327C6.55511 2.83327 5.99994 3.38843 5.99994 4.07327V5.83327C5.99994 6.75374 6.74614 7.49993 7.66661 7.49993H8.33328C9.25375 7.49993 9.99994 6.75374 9.99994 5.83327V4.07327C9.99994 3.7444 9.8693 3.429 9.63676 3.19645C9.40421 2.96391 9.08881 2.83327 8.75994 2.83327H7.23994Z" fill="#0B1C3F"/>
</svg>
