<svg width="16" height="17" viewBox="0 0 16 17" fill="none" xmlns="http://www.w3.org/2000/svg">
<path fill-rule="evenodd" clip-rule="evenodd" d="M13.0533 11.64L13.2133 12.4C13.3649 13.0571 13.2152 13.7475 12.8051 14.2828C12.3949 14.8181 11.7672 15.1422 11.0933 15.1667H4.90665C4.23276 15.1422 3.60503 14.8181 3.19488 14.2828C2.78473 13.7475 2.63503 13.0571 2.78665 12.4L2.94665 11.64C3.13067 10.6112 4.01506 9.85517 5.05998 9.83337H10.94C11.9849 9.85517 12.8693 10.6112 13.0533 11.64ZM11.0933 14.16C11.4318 14.1561 11.7504 13.9993 11.96 13.7334V13.74C12.2171 13.4175 12.3173 12.9972 12.2333 12.5934L12.0733 11.8334C11.9845 11.2702 11.5097 10.8484 10.94 10.8267H5.05998C4.49023 10.8484 4.01542 11.2702 3.92665 11.8334L3.76665 12.5934C3.68475 12.9951 3.78482 13.4125 4.03998 13.7334C4.24954 13.9993 4.56812 14.1561 4.90665 14.16H11.0933Z" fill="#3FA9F5"/>
<path fill-rule="evenodd" clip-rule="evenodd" d="M8.33328 8.49999H7.66662C6.19386 8.49999 4.99995 7.30608 4.99995 5.83332V4.07332C4.99817 3.4787 5.2336 2.90791 5.65407 2.48744C6.07453 2.06697 6.64532 1.83155 7.23995 1.83332H8.75995C9.35458 1.83155 9.92536 2.06697 10.3458 2.48744C10.7663 2.90791 11.0017 3.4787 10.9999 4.07332V5.83332C10.9999 7.30608 9.80604 8.49999 8.33328 8.49999ZM7.23994 2.83333C6.55511 2.83333 5.99994 3.38849 5.99994 4.07333V5.83333C5.99994 6.7538 6.74614 7.49999 7.66661 7.49999H8.33328C9.25375 7.49999 9.99994 6.7538 9.99994 5.83333V4.07333C9.99994 3.74446 9.8693 3.42906 9.63676 3.19652C9.40421 2.96397 9.08881 2.83333 8.75994 2.83333H7.23994Z" fill="#3FA9F5"/>
</svg>
