<svg width="20" height="20" viewBox="0 0 20 20" fill="none" xmlns="http://www.w3.org/2000/svg">
<path fill-rule="evenodd" clip-rule="evenodd" d="M1.12522 5.66933C2.57371 2.24469 5.96757 0.0100374 9.73527 0.000128852C13.7959 -0.0209255 17.4066 2.54006 18.6724 6.3391C19.9382 10.1381 18.5699 14.3074 15.2857 16.6588C12.0015 19.0103 7.55159 19.0068 4.2712 16.6501L1.3462 19.5301C1.04881 19.8226 0.567035 19.8226 0.269642 19.5301C-0.0273807 19.2373 -0.0273807 18.7629 0.269642 18.4701L3.10324 15.6801C0.456419 13.04 -0.323263 9.09396 1.12522 5.66933ZM2.48327 12.1691C3.69945 15.0547 6.56219 16.9342 9.73527 16.9301V16.8901C14.0418 16.8847 17.5378 13.4603 17.5657 9.22013C17.5698 6.09586 15.661 3.27717 12.7303 2.0797C9.79952 0.882226 6.42467 1.54208 4.18096 3.75127C1.93725 5.96046 1.26708 9.2834 2.48327 12.1691Z" fill="#B5C1D1"/>
</svg>
