<svg width="32" height="32" viewBox="0 0 32 32" fill="none" xmlns="http://www.w3.org/2000/svg">
<path d="M5 13.3333V6C5 5.73478 5.10536 5.48043 5.29289 5.29289C5.48043 5.10536 5.73478 5 6 5H26C26.2652 5 26.5196 5.10536 26.7071 5.29289C26.8946 5.48043 27 5.73478 27 6V13.3333C27 23.8352 18.0868 27.3146 16.307 27.9047C16.1081 27.9731 15.8919 27.9731 15.693 27.9047C13.9133 27.3146 5 23.8352 5 13.3333Z" stroke="#728095" stroke-width="2" stroke-linecap="round" stroke-linejoin="round"/>
<path d="M16 11V16" stroke="#728095" stroke-width="2" stroke-linecap="round" stroke-linejoin="round"/>
<path d="M16 22C16.8284 22 17.5 21.3284 17.5 20.5C17.5 19.6716 16.8284 19 16 19C15.1716 19 14.5 19.6716 14.5 20.5C14.5 21.3284 15.1716 22 16 22Z" fill="#728095"/>
</svg>
