<svg width="15" height="15" viewBox="0 0 15 15" fill="none" xmlns="http://www.w3.org/2000/svg">
<path fill-rule="evenodd" clip-rule="evenodd" d="M4.15984 0.834975H11.1598C12.0744 0.808109 12.9617 1.14811 13.6241 1.77923C14.2866 2.41036 14.6691 3.28019 14.6865 4.19498V9.25498C14.632 11.1355 13.0742 12.622 11.1932 12.5883H10.1132C9.8417 12.589 9.58484 12.7113 9.41317 12.9216L8.39317 14.2216C8.2223 14.4331 7.96502 14.556 7.69317 14.556C7.42132 14.556 7.16404 14.4331 6.99317 14.2216L5.93984 12.895C5.76817 12.6847 5.51131 12.5624 5.23984 12.5616H4.15984C2.27879 12.5953 0.720999 11.1089 0.666504 9.22831V4.16831C0.717418 2.28616 2.27737 0.797656 4.15984 0.834975ZM11.1665 11.5883C12.5055 11.6219 13.6199 10.5671 13.6599 9.22831V4.19497C13.6199 2.85349 12.5014 1.79761 11.1599 1.83497H4.15987C2.81831 1.79761 1.6998 2.85349 1.65987 4.19497V9.22831C1.6998 10.5698 2.81831 11.6257 4.15987 11.5883H5.23987C5.81794 11.5884 6.36474 11.8508 6.72654 12.3016L7.65987 13.4883L8.5932 12.3016C8.955 11.8508 9.5018 11.5884 10.0799 11.5883H11.1665Z" fill="#3FA9F5"/>
<path d="M5.16016 5.4751C4.88401 5.4751 4.66016 5.69896 4.66016 5.9751V7.5751C4.66016 7.85124 4.88401 8.0751 5.16016 8.0751C5.4363 8.0751 5.66016 7.85124 5.66016 7.5751V5.9751C5.66016 5.69896 5.4363 5.4751 5.16016 5.4751V5.4751Z" fill="#3FA9F5"/>
<path d="M7.66016 5.4751C7.38401 5.4751 7.16016 5.69896 7.16016 5.9751V7.5751C7.16016 7.85124 7.38401 8.0751 7.66016 8.0751C7.9363 8.0751 8.16016 7.85124 8.16016 7.5751V5.9751C8.16016 5.69896 7.9363 5.4751 7.66016 5.4751V5.4751Z" fill="#3FA9F5"/>
<path d="M10.1602 5.4751C9.88401 5.4751 9.66016 5.69896 9.66016 5.9751V7.5751C9.66016 7.85124 9.88401 8.0751 10.1602 8.0751C10.4363 8.0751 10.6602 7.85124 10.6602 7.5751V5.9751C10.6602 5.69896 10.4363 5.4751 10.1602 5.4751V5.4751Z" fill="#3FA9F5"/>
</svg>
