<svg width="15" height="15" viewBox="0 0 15 15" fill="none" xmlns="http://www.w3.org/2000/svg">
<path fill-rule="evenodd" clip-rule="evenodd" d="M3.49333 0.834975H10.4933C11.4079 0.808109 12.2952 1.14811 12.9576 1.77923C13.6201 2.41036 14.0026 3.28019 14.02 4.19498V9.25498C13.9655 11.1355 12.4077 12.622 10.5267 12.5883H9.44667C9.1752 12.589 8.91833 12.7113 8.74667 12.9216L7.72667 14.2216C7.5558 14.4331 7.29852 14.556 7.02667 14.556C6.75482 14.556 6.49753 14.4331 6.32667 14.2216L5.27333 12.895C5.10167 12.6847 4.8448 12.5624 4.57333 12.5616H3.49333C1.61229 12.5953 0.0544952 11.1089 0 9.22831V4.16831C0.0509136 2.28616 1.61086 0.797656 3.49333 0.834975ZM10.5 11.5883C11.839 11.6219 12.9534 10.5671 12.9934 9.22831V4.19497C12.9534 2.85349 11.8349 1.79761 10.4934 1.83497H3.49337C2.15181 1.79761 1.03329 2.85349 0.993367 4.19497V9.22831C1.03329 10.5698 2.15181 11.6257 3.49337 11.5883H4.57337C5.15143 11.5884 5.69824 11.8508 6.06003 12.3016L6.99337 13.4883L7.9267 12.3016C8.2885 11.8508 8.8353 11.5884 9.41337 11.5883H10.5Z" fill="#0F2744"/>
<path d="M4.49335 5.4751C4.2172 5.4751 3.99335 5.69896 3.99335 5.9751V7.5751C3.99335 7.85124 4.2172 8.0751 4.49335 8.0751C4.76949 8.0751 4.99335 7.85124 4.99335 7.5751V5.9751C4.99335 5.69896 4.76949 5.4751 4.49335 5.4751V5.4751Z" fill="#0F2744"/>
<path d="M6.99335 5.4751C6.7172 5.4751 6.49335 5.69896 6.49335 5.9751V7.5751C6.49335 7.85124 6.7172 8.0751 6.99335 8.0751C7.26949 8.0751 7.49335 7.85124 7.49335 7.5751V5.9751C7.49335 5.69896 7.26949 5.4751 6.99335 5.4751V5.4751Z" fill="#0B1C3F"/>
<path d="M9.49335 5.4751C9.2172 5.4751 8.99335 5.69896 8.99335 5.9751V7.5751C8.99335 7.85124 9.2172 8.0751 9.49335 8.0751C9.76949 8.0751 9.99335 7.85124 9.99335 7.5751V5.9751C9.99335 5.69896 9.76949 5.4751 9.49335 5.4751V5.4751Z" fill="#0B1C3F"/>
</svg>
