<svg width="16" height="17" viewBox="0 0 16 17" fill="none" xmlns="http://www.w3.org/2000/svg">
<path fill-rule="evenodd" clip-rule="evenodd" d="M10.5267 15.5599H5.86002C4.09531 15.5562 2.66668 14.1246 2.66669 12.3599V5.02659C2.67035 3.26448 4.09791 1.83692 5.86002 1.83325H10.5267C12.2914 1.83325 13.723 3.26188 13.7267 5.02659V12.3599C13.7267 13.2086 13.3895 14.0225 12.7894 14.6227C12.1893 15.2228 11.3754 15.5599 10.5267 15.5599ZM5.86003 2.89322C4.68334 2.89688 3.73036 3.84987 3.7267 5.02656V12.3599C3.72669 13.5392 4.68075 14.4962 5.86003 14.4999H10.5267C11.7086 14.4999 12.6667 13.5418 12.6667 12.3599V5.02656C12.663 3.84727 11.706 2.89322 10.5267 2.89322H5.86003ZM5.32671 6.85327H9.79337C10.042 6.82422 10.2295 6.61358 10.2295 6.36327C10.2295 6.11296 10.042 5.90232 9.79337 5.87327H5.32671C5.138 5.85122 4.9534 5.9395 4.8521 6.10023C4.7508 6.26096 4.7508 6.46558 4.8521 6.62631C4.9534 6.78704 5.138 6.87532 5.32671 6.85327ZM5.32671 12.1866H8.51337C8.70208 12.2087 8.88668 12.1204 8.98798 11.9596C9.08928 11.7989 9.08928 11.5943 8.98798 11.4336C8.88668 11.2728 8.70208 11.1846 8.51337 11.2066H5.32671C5.138 11.1846 4.9534 11.2728 4.8521 11.4336C4.7508 11.5943 4.7508 11.7989 4.8521 11.9596C4.9534 12.1204 5.138 12.2087 5.32671 12.1866ZM11.0667 9.51994H5.32671C5.138 9.54198 4.9534 9.45371 4.8521 9.29298C4.7508 9.13225 4.7508 8.92763 4.8521 8.76689C4.9534 8.60616 5.138 8.51789 5.32671 8.53994H11.0667C11.3153 8.56898 11.5028 8.77962 11.5028 9.02994C11.5028 9.28025 11.3153 9.49089 11.0667 9.51994Z" fill="#3FA9F5"/>
</svg>
