<svg width="16" height="17" viewBox="0 0 16 17" fill="none" xmlns="http://www.w3.org/2000/svg">
<path fill-rule="evenodd" clip-rule="evenodd" d="M13.02 6.79332L8.35331 2.12665C8.25509 2.04247 8.12932 1.99738 7.99998 1.99998H5.99998C4.25108 1.99998 2.83331 3.41775 2.83331 5.16665V11.8333C2.83331 13.5822 4.25108 15 5.99998 15H9.99998C11.7489 15 13.1666 13.5822 13.1666 11.8333V7.16665C13.1689 7.02773 13.1162 6.89355 13.02 6.79332ZM8.49998 3.69336L11.4733 6.66669H9.33331C8.87308 6.66669 8.49998 6.2936 8.49998 5.83336V3.69336ZM5.99998 14H9.99998C11.1951 13.9963 12.163 13.0284 12.1666 11.8333V7.66662H9.33331C8.32079 7.66662 7.49998 6.84581 7.49998 5.83329V2.99996H5.99998C4.80488 3.00362 3.83697 3.97153 3.83331 5.16662V11.8333C3.83697 13.0284 4.80488 13.9963 5.99998 14Z" fill="#0B1C3F"/>
</svg>
