<svg width="16" height="17" viewBox="0 0 16 17" fill="none" xmlns="http://www.w3.org/2000/svg">
<path fill-rule="evenodd" clip-rule="evenodd" d="M13.02 6.79344L8.35331 2.12677C8.25509 2.04259 8.12932 1.9975 7.99998 2.00011H5.99998C4.25108 2.00011 2.83331 3.41787 2.83331 5.16677V11.8334C2.83331 13.5823 4.25108 15.0001 5.99998 15.0001H9.99998C11.7489 15.0001 13.1666 13.5823 13.1666 11.8334V7.16677C13.1689 7.02785 13.1162 6.89367 13.02 6.79344ZM8.49998 3.69348L11.4733 6.66681H9.33331C8.87308 6.66681 8.49998 6.29372 8.49998 5.83348V3.69348ZM5.99998 14.0001H9.99998C11.1951 13.9964 12.163 13.0285 12.1666 11.8334V7.66675H9.33331C8.32079 7.66675 7.49998 6.84593 7.49998 5.83341V3.00008H5.99998C4.80488 3.00374 3.83697 3.97165 3.83331 5.16675V11.8334C3.83697 13.0285 4.80488 13.9964 5.99998 14.0001Z" fill="#3FA9F5"/>
</svg>
